<svg width="900" height="1100" viewBox="0 0 900 1100" fill="none" xmlns="http://www.w3.org/2000/svg">
  <rect width="900" height="1100" fill="#111512"/>
  <rect width="900" height="1100" fill="url(#bg)"/>
  <circle cx="455" cy="318" r="142" fill="#D5B274"/>
  <path d="M275 1030C286 839 364 739 456 739C548 739 626 839 637 1030H275Z" fill="#E8DFC9"/>
  <path d="M319 1030C332 851 390 777 456 777C522 777 580 851 593 1030H319Z" fill="#1E2D28"/>
  <path d="M353 444C353 374.412 409.412 318 479 318H504C573.588 318 630 374.412 630 444V517C630 610.336 554.336 686 461 686C367.664 686 292 610.336 292 517V490C292 465.147 312.147 445 337 445L353 444Z" fill="#E0BD87"/>
  <path d="M331 482C331 406.337 392.337 345 468 345C543.663 345 605 406.337 605 482V512C605 431.95 540.05 367 460 367C379.95 367 315 431.95 315 512V500C315 490.059 323.059 482 333 482H331Z" fill="#18211D"/>
  <path d="M399 508C424.405 508 445 487.405 445 462C445 436.595 424.405 416 399 416C373.595 416 353 436.595 353 462C353 487.405 373.595 508 399 508Z" fill="#18211D"/>
  <path d="M540 508C565.405 508 586 487.405 586 462C586 436.595 565.405 416 540 416C514.595 416 494 436.595 494 462C494 487.405 514.595 508 540 508Z" fill="#18211D"/>
  <path d="M412 573C432.282 593.282 465.718 593.282 486 573" stroke="#9F6A48" stroke-width="16" stroke-linecap="round"/>
  <path d="M470 318C470 318 493 246 570 250C625 253 667 292 686 346C703 394 683 470 683 470H629C629 470 646 389 606 352C581 329 541 326 513 338C487 349 470 318 470 318Z" fill="#18211D"/>
  <path d="M451 318C451 318 428 246 351 250C296 253 254 292 235 346C218 394 238 470 238 470H292C292 470 275 389 315 352C340 329 380 326 408 338C434 349 451 318 451 318Z" fill="#18211D"/>
  <path d="M251 1030H649L614 1099H286L251 1030Z" fill="#C39B58"/>
  <path d="M207 1074H693" stroke="#EED39A" stroke-width="8" stroke-linecap="round" opacity="0.6"/>
  <path d="M249 1041H651" stroke="#F8E5B8" stroke-width="2" opacity="0.5"/>
  <defs>
    <linearGradient id="bg" x1="101" y1="75" x2="780" y2="1100" gradientUnits="userSpaceOnUse">
      <stop stop-color="#202824"/>
      <stop offset="0.48" stop-color="#121613"/>
      <stop offset="1" stop-color="#1E2017"/>
    </linearGradient>
  </defs>
</svg>
